PathFileType	4	(X/Y/Z)	/Users/itak/Documents/Research/Walk-IL/dataset/trc/00318_00011.trc
DataRate	CameraRate	NumFrames	NumMarkers	Units	OrigDataRate	OrigDataStartFrame	OrigNumFrames
100.000000	100.000000	4	53	mm	100.000000	0	542
Frame#	Time	RPSI			LPSI			L3			STRN			T10			C7			CLAV			RBAK			LBAK			LSHO			LUPA			LAEL			LAOL			LWTS			LWPS			LFRA			LHPS			LHTS			RSHO			RUPA			RAEL			RAOL			RWTS			RWPS			RFRA			RIFD			RHTS			RHPS			RBHD			LFHD			RFHD			LBHD			LHIP			RHIP			RASI			LASI			LKNE			LTHI			LANK			LTIP			LTOE			LMT1			LMT5			LHEE			RKNE			RTHI			RANK			RTIP			RTOE			RMT1			RMT5			RHEE			LIFD			
		X1	Y1	Z1	X2	Y2	Z2	X3	Y3	Z3	X4	Y4	Z4	X5	Y5	Z5	X6	Y6	Z6	X7	Y7	Z7	X8	Y8	Z8	X9	Y9	Z9	X10	Y10	Z10	X11	Y11	Z11	X12	Y12	Z12	X13	Y13	Z13	X14	Y14	Z14	X15	Y15	Z15	X16	Y16	Z16	X17	Y17	Z17	X18	Y18	Z18	X19	Y19	Z19	X20	Y20	Z20	X21	Y21	Z21	X22	Y22	Z22	X23	Y23	Z23	X24	Y24	Z24	X25	Y25	Z25	X26	Y26	Z26	X27	Y27	Z27	X28	Y28	Z28	X29	Y29	Z29	X30	Y30	Z30	X31	Y31	Z31	X32	Y32	Z32	X33	Y33	Z33	X34	Y34	Z34	X35	Y35	Z35	X36	Y36	Z36	X37	Y37	Z37	X38	Y38	Z38	X39	Y39	Z39	X40	Y40	Z40	X41	Y41	Z41	X42	Y42	Z42	X43	Y43	Z43	X44	Y44	Z44	X45	Y45	Z45	X46	Y46	Z46	X47	Y47	Z47	X48	Y48	Z48	X49	Y49	Z49	X50	Y50	Z50	X51	Y51	Z51	X52	Y52	Z52	X53	Y53	Z53	

1	0	-1517.821899414062	983.424072265625	12.06686019897461	-1518.663330078125	983.3553466796875	-117.1777267456055	-1524.9345703125	1039.59033203125	-49.77288055419922	-1301.776611328125	1230.444946289062	-65.60779571533203	-1543.24951171875	1159.458984375	-63.99505615234375	-1512.506591796875	1409.707397460938	-81.26770782470703	-1352.512329101562	1351.970703125	-70.33437347412109	-1555.525390625	1269.064819335938	-13.48726749420166	-1517.535034179688	1371.279907226562	-182.9212951660156	-1429.919067382812	1387.012573242188	-235.6334686279297	-1442.207885742188	1266.508544921875	-303.5906982421875	-1414.52880859375	1063.354125976562	-316.0231628417969	-1475.208251953125	1045.80029296875	-259.6259155273438	-1304.505737304688	824.3402099609375	-282.4683227539062	-1349.600219726562	812.2588500976562	-334.9760131835938	-1394.525756835938	960.2515869140625	-324.6646423339844	-1348.50048828125	741.44775390625	-329.3927001953125	-1292.1865234375	746.8433227539062	-299.6630249023438	-1456.867553710938	1396.006713867188	83.32357788085938	-1467.173217773438	1330.793090820312	147.9593505859375	-1444.738037109375	1064.049438476562	188.4283294677734	-1481.962768554688	1051.935180664062	101.2156143188477	-1314.72607421875	844.104248046875	155.4874267578125	-1357.041748046875	827.62841796875	219.0584564208984	-1415.643676757812	998.3866577148438	198.9123229980469	-1291.7919921875	671.7732543945312	177.5059967041016	-1283.021728515625	747.5200805664062	177.6798858642578	-1336.554077148438	744.806640625	218.2516784667969	-1497.694213867188	1603.365112304688	-1.006978511810303	-1322.01806640625	1640.630615234375	-107.5865783691406	-1338.7099609375	1638.900634765625	-7.817410469055176	-1499.019287109375	1597.798706054688	-145.4454345703125	-1431.766479492188	925.98681640625	-220.7918395996094	-1437.034790039062	930.6585693359375	120.8814697265625	-1332.754272460938	961.8814086914062	77.24006652832031	-1312.834594726562	954.3738403320312	-162.1462707519531	-1391.61669921875	468.2429809570312	-203.8843536376953	-1388.303588867188	608.1712646484375	-213.0538177490234	-1485.40185546875	49.54791259765625	-184.6397094726562	-1439.2822265625	252.1568908691406	-204.9690704345703	-1278.002807617188	46.89849090576172	-132.6223907470703	-1345.207763671875	35.2566032409668	-88.01896667480469	-1359.954345703125	45.74861145019531	-202.1131744384766	-1517.035766601562	44.03943252563477	-116.0600509643555	-1406.148559570312	464.0631408691406	93.61201477050781	-1364.388916015625	721.0709228515625	120.4742736816406	-1472.859252929688	53.95998764038086	61.03493499755859	-1401.816040039062	343.8118896484375	79.8978271484375	-1278.99462890625	48.37226104736328	13.78275299072266	-1333.533447265625	39.9810905456543	-29.14767456054688	-1372.088623046875	42.3939323425293	82.66958618164062	-1523.710205078125	52.73518371582031	12.67688751220703	-1293.615112304688	662.7855224609375	-281.9535217285156	
2	0.01	-1517.688842773438	983.4056396484375	12.06808662414551	-1518.523193359375	983.343994140625	-117.1809844970703	-1524.79931640625	1039.551879882812	-49.72370910644531	-1301.69873046875	1230.45458984375	-65.56919860839844	-1543.170654296875	1159.460815429688	-63.96799087524414	-1512.425170898438	1409.66845703125	-81.22693634033203	-1352.443359375	1351.950561523438	-70.31267547607422	-1555.421630859375	1269.026489257812	-13.43622303009033	-1517.457763671875	1371.258178710938	-182.8799896240234	-1429.837524414062	1386.999633789062	-235.5981292724609	-1442.192504882812	1266.498046875	-303.5701293945312	-1414.581909179688	1063.3359375	-316.0146484375	-1475.211791992188	1045.801513671875	-259.5780029296875	-1304.689819335938	824.3588256835938	-282.6110229492188	-1349.753662109375	812.2022705078125	-335.0212097167969	-1394.596923828125	960.2212524414062	-324.6711730957031	-1348.71435546875	741.403076171875	-329.4465637207031	-1292.395629882812	746.733642578125	-299.7691650390625	-1456.817749023438	1396.009399414062	83.33966064453125	-1467.069946289062	1330.770874023438	147.9950714111328	-1444.558837890625	1064.041137695312	188.5267791748047	-1481.8232421875	1051.884033203125	101.3124771118164	-1314.709838867188	844.0418701171875	155.6688385009766	-1356.869384765625	827.6340942382812	219.2343139648438	-1415.526000976562	998.422607421875	199.0767669677734	-1291.687255859375	671.78857421875	177.7096252441406	-1282.948608398438	747.3893432617188	177.6925354003906	-1336.39892578125	744.853271484375	218.5097351074219	-1497.664428710938	1603.3388671875	-0.9761888980865479	-1322.007690429688	1640.647216796875	-107.5504760742188	-1338.704833984375	1638.913330078125	-7.767347812652588	-1499.00634765625	1597.78564453125	-145.4288635253906	-1431.610717773438	925.9829711914062	-220.7958679199219	-1436.915771484375	930.6717529296875	120.9028015136719	-1332.698852539062	961.8353881835938	77.2340087890625	-1312.67822265625	954.3670043945312	-162.09716796875	-1391.558715820312	468.236328125	-203.8789215087891	-1388.227783203125	608.1653442382812	-213.0532684326172	-1485.404418945312	49.55075454711914	-184.6388854980469	-1439.261474609375	252.1639099121094	-204.9720001220703	-1278.00537109375	46.89377975463867	-132.6225738525391	-1345.1826171875	35.28815078735352	-88.05606079101562	-1359.956298828125	45.74810028076172	-202.1096801757812	-1517.038940429688	44.0467643737793	-116.0671997070312	-1406.144775390625	464.0534362792969	93.58218383789062	-1364.336303710938	721.1500244140625	120.5256500244141	-1472.854736328125	53.95750045776367	61.0386848449707	-1401.7734375	343.8511047363281	79.88319396972656	-1278.9912109375	48.35861587524414	13.77602386474609	-1333.53271484375	39.98818206787109	-29.15067863464355	-1372.081176757812	42.39713668823242	82.67024230957031	-1523.701049804688	52.73469543457031	12.68193626403809	-1293.676147460938	662.785888671875	-282.01025390625	
3	0.02	-1517.510986328125	983.3781127929688	12.06406211853027	-1518.341918945312	983.3292846679688	-117.1799163818359	-1524.63037109375	1039.506469726562	-49.66673278808594	-1301.59814453125	1230.466430664062	-65.51844024658203	-1543.07763671875	1159.46044921875	-63.93498611450195	-1512.32763671875	1409.622314453125	-81.17530059814453	-1352.35693359375	1351.930419921875	-70.28314208984375	-1555.294067382812	1268.979858398438	-13.37148571014404	-1517.360961914062	1371.2314453125	-182.8272705078125	-1429.732666015625	1386.984375	-235.5519256591797	-1442.169921875	1266.4833984375	-303.5408325195312	-1414.637451171875	1063.31103515625	-315.9924011230469	-1475.20751953125	1045.802856445312	-259.5055236816406	-1304.924560546875	824.3646240234375	-282.7577209472656	-1349.9326171875	812.1319580078125	-335.05322265625	-1394.69189453125	960.1824951171875	-324.6681518554688	-1348.979370117188	741.3450927734375	-329.4931945800781	-1292.627685546875	746.61083984375	-299.8820190429688	-1456.754028320312	1396.009765625	83.36426544189453	-1466.946655273438	1330.746215820312	148.0385437011719	-1444.340698242188	1064.026611328125	188.6501312255859	-1481.650512695312	1051.821166992188	101.4382858276367	-1314.66943359375	843.970947265625	155.9058837890625	-1356.649780273438	827.6434326171875	219.4627380371094	-1415.387939453125	998.468505859375	199.2784271240234	-1291.520141601562	671.821533203125	177.9386901855469	-1282.855224609375	747.2555541992188	177.7653961181641	-1336.215942382812	744.9212646484375	218.8188629150391	-1497.620971679688	1603.304077148438	-0.93462735414505	-1321.994384765625	1640.668701171875	-107.5048294067383	-1338.69580078125	1638.927856445312	-7.702931880950928	-1498.989135742188	1597.76806640625	-145.4054565429688	-1431.429321289062	925.9817504882812	-220.8032073974609	-1436.7587890625	930.6817626953125	120.9290618896484	-1332.607177734375	961.7484130859375	77.21024322509766	-1312.463256835938	954.3690185546875	-162.0453033447266	-1391.47998046875	468.2257385253906	-203.8704833984375	-1388.133666992188	608.1574096679688	-213.0537719726562	-1485.407592773438	49.55533218383789	-184.6382446289062	-1439.234985351562	252.1712646484375	-204.9747314453125	-1278.007446289062	46.88838958740234	-132.6223602294922	-1345.151245117188	35.32609939575195	-88.10113525390625	-1359.958984375	45.74684143066406	-202.1059722900391	-1517.042724609375	44.05867767333984	-116.0746536254883	-1406.127563476562	464.0413208007812	93.55950164794922	-1364.278442382812	721.2451171875	120.5980606079102	-1472.85107421875	53.95544815063477	61.04267501831055	-1401.722045898438	343.8971862792969	79.86310577392578	-1278.988525390625	48.34262847900391	13.77022266387939	-1333.532836914062	39.993896484375	-29.15240287780762	-1372.074340820312	42.39990615844727	82.67057800292969	-1523.691650390625	52.73542022705078	12.68789386749268	-1293.74755859375	662.791259765625	-282.0745544433594	
4	0.03	-1517.291748046875	983.3405151367188	12.05233860015869	-1518.126708984375	983.31201171875	-117.1729965209961	-1524.433349609375	1039.457153320312	-49.60714721679688	-1301.478149414062	1230.479614257812	-65.45658874511719	-1542.975463867188	1159.456176757812	-63.89810562133789	-1512.220336914062	1409.571899414062	-81.11480712890625	-1352.25732421875	1351.9130859375	-70.24616241455078	-1555.150268554688	1268.928344726562	-13.29624080657959	-1517.248657226562	1371.201416015625	-182.7645874023438	-1429.608642578125	1386.967895507812	-235.4962310791016	-1442.139770507812	1266.464233398438	-303.5025939941406	-1414.688232421875	1063.279541015625	-315.9516906738281	-1475.192138671875	1045.80419921875	-259.4057312011719	-1305.198486328125	824.3479614257812	-282.8836364746094	-1350.124633789062	812.0513916015625	-335.0596618652344	-1394.807373046875	960.1365356445312	-324.6492919921875	-1349.281494140625	741.27587890625	-329.5194702148438	-1292.857177734375	746.4879760742188	-299.9830627441406	-1456.678833007812	1396.006469726562	83.39811706542969	-1466.811157226562	1330.721801757812	148.0881042480469	-1444.096435546875	1064.00634765625	188.7935943603516	-1481.452880859375	1051.751586914062	101.5886688232422	-1314.593994140625	843.9017333984375	156.1892395019531	-1356.392211914062	827.6572875976562	219.7360687255859	-1415.239868164062	998.5225219726562	199.5053100585938	-1291.28564453125	671.872802734375	178.1774291992188	-1282.735107421875	747.1632690429688	177.9322967529297	-1336.013549804688	745.0039672851562	219.1630401611328	-1497.563232421875	1603.261596679688	-0.8828063011169434	-1321.978149414062	1640.6943359375	-107.4513092041016	-1338.682250976562	1638.942016601562	-7.626309394836426	-1498.968017578125	1597.746948242188	-145.3753662109375	-1431.23486328125	925.984619140625	-220.8142242431641	-1436.56884765625	930.6845092773438	120.959098815918	-1332.470947265625	961.6104125976562	77.16229248046875	-1312.190551757812	954.3843994140625	-161.9962768554688	-1391.381225585938	468.2109375	-203.8588104248047	-1388.024658203125	608.1476440429688	-213.0553894042969	-1485.410888671875	49.56133651733398	-184.6375732421875	-1439.203125	252.1781921386719	-204.9767456054688	-1278.008666992188	46.88300704956055	-132.6218566894531	-1345.115600585938	35.36457824707031	-88.15077209472656	-1359.961791992188	45.74472045898438	-202.1024169921875	-1517.046508789062	44.0745849609375	-116.0814590454102	-1406.09521484375	464.0273742675781	93.54865264892578	-1364.217041015625	721.345947265625	120.6872406005859	-1472.848754882812	53.95417404174805	61.04665374755859	-1401.666259765625	343.940673828125	79.8431396484375	-1278.987060546875	48.32529067993164	13.76648998260498	-1333.5341796875	39.99553680419922	-29.15150260925293	-1372.069213867188	42.40109634399414	82.67021179199219	-1523.68310546875	52.73720932006836	12.69475936889648	-1293.824462890625	662.801513671875	-282.1380004882812	
